<svg version="1.1" id="svg-draw" xmlns="http://www.w3.org/2000/svg" xmlns:xlink="http://www.w3.org/1999/xlink" x="0px" y="0px" width="100%" height="100%" viewBox="0 0 200 320" xml:space="preserve">
	<g id="svg-content">
		<g transform="matrix(0.70,0,0,0.70,30,40)">
			
<g id="XMLID_144_">
	<path id="XMLID_142_" fill="#F37724" d="M37.9,75.3c-7-5.4-17-4.2-22.5,2.8c-5.4,7-4.2,17,2.8,22.5c7,5.4,17,4.2,22.5-2.8
		C46.1,90.8,44.9,80.7,37.9,75.3z"/>
	<path id="XMLID_141_" fill="#F37724" d="M11.8,59.4c-0.4,0.9-0.8,1.8-1.2,2.8c-0.5,1.2-0.9,2.4-1.4,3.6c-0.3,0.8-0.6,1.6-0.8,2.4
		c-0.7,2-1.3,4-1.8,6.1c6.5-13.5,14.9-21.7,23.8-21.3c7.3,0.3,13.7,6.3,18.8,16.1c0.4,0.8,0.8,1.6,1.2,2.5c0.3,0.6,0.5,1.1,0.8,1.7
		c0.4,0.9,0.8,1.8,1.1,2.8c0.2,0.6,0.5,1.2,0.7,1.9c0.3,1,0.7,2,1,3c0.2,0.7,0.4,1.3,0.6,2c0.3,1,0.6,2.1,0.9,3.2
		c0.2,0.7,0.4,1.4,0.6,2.2c0.3,1.1,0.5,2.3,0.8,3.4c0.2,0.8,0.3,1.5,0.5,2.3c0.2,1.2,0.4,2.5,0.6,3.7c0.1,0.8,0.3,1.5,0.4,2.3
		c0.2,1.4,0.4,2.8,0.6,4.2c0.1,0.7,0.2,1.4,0.3,2.1c0.2,2.1,0.4,4.3,0.6,6.5c1.5-24.2,12.6-48.1,32.7-65.4c1.5-1.3,3.1-2.6,4.7-3.7
		c0.4-0.3,0.7-0.6,1.1-0.8c1.4-1.1,2.9-2.1,4.4-3.1c0.2-0.1,0.3-0.2,0.5-0.3c1.7-1.1,3.4-2.1,5.1-3.1c0.3-0.2,0.6-0.3,0.8-0.5
		c1.5-0.8,3.1-1.6,4.6-2.4c13.8-6.6,28.7-9.7,43.5-9.2c-1.9-1.6-3.9-3.2-6-4.6c-0.8-0.5-1.5-1-2.3-1.5c-0.9-0.6-1.8-1.2-2.7-1.8
		c-0.1,0-0.1,0-0.2,0C112.8-4.3,68.4-1.6,36.7,25.8C27.6,33.7,20.4,42.9,15,52.8c0,0-0.1,0-0.1,0.1c-0.1,0.2-0.2,0.4-0.3,0.6
		c-0.5,0.9-0.9,1.8-1.4,2.8C12.8,57.3,12.3,58.4,11.8,59.4z"/>
	<path id="XMLID_140_" fill="#3F1D7E" d="M142.8,32.5c-8.2,3.3-12.2,12.7-8.8,20.9c3.3,8.2,12.7,12.1,20.9,8.8
		c8.2-3.3,12.2-12.7,8.8-20.9C160.3,33.1,151,29.2,142.8,32.5z"/>
	<path id="XMLID_139_" fill="#3F1D7E" d="M198.3,85.9c-2.3-11.8-6.6-22.7-12.6-32.3c0,0,0-0.1,0-0.1c-0.1-0.2-0.3-0.4-0.4-0.6
		c-0.5-0.9-1.1-1.7-1.7-2.6c-0.7-1-1.3-1.9-2-2.8c-0.6-0.8-1.2-1.6-1.8-2.4c-0.8-1-1.6-2-2.4-3c-0.5-0.6-1.1-1.3-1.6-1.9
		c-1.4-1.6-2.9-3.1-4.4-4.6c8.5,12.4,11.4,23.7,6.6,31.3c-3.9,6.2-12.3,8.8-23.4,8.2c-0.9,0-1.8-0.1-2.7-0.2c-0.7-0.1-1.3-0.1-2-0.2
		c-0.9-0.1-1.9-0.2-2.8-0.4c-0.7-0.1-1.4-0.2-2.1-0.4c-1-0.2-2-0.4-3-0.6c-0.7-0.2-1.5-0.3-2.2-0.5c-1-0.2-2-0.5-3.1-0.8
		c-0.8-0.2-1.5-0.4-2.3-0.6c-1-0.3-2.1-0.7-3.2-1c-0.8-0.3-1.6-0.5-2.4-0.8c-1.1-0.4-2.2-0.8-3.4-1.2c-0.8-0.3-1.5-0.6-2.3-0.9
		c-1.2-0.5-2.5-1-3.7-1.5c-0.7-0.3-1.4-0.6-2.1-0.9c-1.9-0.9-3.9-1.8-5.9-2.7c20.2,13.4,35.3,35,40.3,61.1c0.4,2,0.7,3.9,0.9,5.9
		c0.1,0.5,0.1,0.9,0.2,1.4c0.2,1.8,0.4,3.5,0.5,5.3c0,0.2,0,0.4,0,0.6c0.1,2,0.1,4,0.1,5.9c0,0.3,0,0.6,0,0.9c0,1.7-0.1,3.5-0.3,5.2
		c-1.2,15.3-6,29.8-13.7,42.3c2-0.7,3.9-1.5,5.8-2.3c0.3-0.1,0.6-0.3,0.9-0.4c1.9-0.8,3.7-1.7,5.5-2.7c0.1,0,0.1-0.1,0.2-0.1
		c0,0,0,0,0,0C186.3,167,206.2,127.1,198.3,85.9z"/>
	<path id="XMLID_138_" fill="#EA028B" d="M123.6,155.3c-8.8-1.2-16.9,4.9-18.1,13.7c-1.2,8.8,4.9,16.9,13.7,18.1
		c8.8,1.2,16.9-4.9,18.1-13.7C138.4,164.6,132.3,156.5,123.6,155.3z"/>
	<path id="XMLID_137_" fill="#EA028B" d="M104.8,199.5c1-0.1,2-0.2,2.9-0.4c1.3-0.2,2.6-0.4,3.9-0.6c0.8-0.1,1.6-0.3,2.4-0.4
		c2.1-0.4,4.2-0.9,6.2-1.5c-15,1.2-26.2-2-30.4-9.9c-3.4-6.4-1.4-15,4.5-24.3c0.5-0.8,1-1.6,1.6-2.3c0.4-0.5,0.7-1,1.1-1.5
		c0.6-0.8,1.2-1.5,1.8-2.3c0.4-0.5,0.9-1.1,1.3-1.6c0.6-0.8,1.3-1.5,2-2.3c0.5-0.6,1-1.1,1.6-1.7c0.7-0.7,1.4-1.5,2.2-2.2
		c0.6-0.6,1.2-1.2,1.8-1.7c0.8-0.7,1.6-1.4,2.3-2.2c0.6-0.6,1.3-1.2,2-1.7c0.8-0.7,1.7-1.4,2.6-2.2c0.7-0.6,1.4-1.1,2.1-1.7
		c1-0.8,2-1.5,3-2.3c0.7-0.5,1.3-1,2-1.5c1.7-1.3,3.5-2.5,5.3-3.7c-21.7,10.8-47.9,13.1-73,4.4c-1.9-0.7-3.7-1.4-5.5-2.1
		c-0.5-0.2-0.9-0.4-1.4-0.6c-1.6-0.7-3.1-1.4-4.6-2.1c-0.2-0.1-0.5-0.2-0.7-0.3c-1.7-0.9-3.4-1.8-5.1-2.8c-0.3-0.2-0.7-0.4-1-0.6
		c-1.4-0.9-2.8-1.8-4.2-2.7c-12.7-8.7-22.9-20.1-29.9-33.1c-0.4,2.1-0.7,4.1-0.9,6.2c0,0.3-0.1,0.6-0.1,1c-0.2,2-0.3,4.1-0.4,6.1
		c0,0.1,0,0.2,0,0.2c0,0,0,0,0,0c-1.1,38.9,23.5,76.1,63.2,89.9c11.4,4,23,5.6,34.3,5.2c0,0,0.1,0,0.1,0c0.2,0,0.4,0,0.7,0
		c1.1,0,2.1-0.1,3.1-0.2C102.5,199.7,103.7,199.6,104.8,199.5z"/>
</g>

		</g>
		<text font-family="Lucida Grande, Microsoft Yahei" letter-spacing="4" text-anchor="middle" fill="#3e3a39" stroke="#3e3a39" stroke-width="1" font-size="50" dx="100" dy="250">Hotfix</text>
		<text font-family="Lucida Grande, Microsoft Yahei" text-anchor="middle" fill="#888888" font-size="23" dx="100" dy="285"></text>
	</g>
</svg>